<mxfile host="app.diagrams.net" agent="Mozilla/5.0 (Windows NT 10.0; Win64; x64) AppleWebKit/537.36 (KHTML, like Gecko) Chrome/127.0.0.0 Safari/537.36" version="24.7.8">
  <diagram name="第 1 页" id="mCzyzfASEUH90jYzpFTh">
    <mxGraphModel dx="1434" dy="746" grid="1" gridSize="10" guides="1" tooltips="1" connect="1" arrows="1" fold="1" page="1" pageScale="1" pageWidth="827" pageHeight="1169" math="0" shadow="0">
      <root>
        <mxCell id="0" />
        <mxCell id="1" parent="0" />
        <mxCell id="-GC_Feh9PmOp9ZqAWGjx-41" value="" style="rounded=0;whiteSpace=wrap;html=1;" vertex="1" parent="1">
          <mxGeometry x="50" y="630" width="680" height="100" as="geometry" />
        </mxCell>
        <mxCell id="-GC_Feh9PmOp9ZqAWGjx-39" value="" style="rounded=0;whiteSpace=wrap;html=1;fillColor=#d5e8d4;strokeColor=#82b366;" vertex="1" parent="1">
          <mxGeometry x="50" y="320" width="670" height="110" as="geometry" />
        </mxCell>
        <mxCell id="-GC_Feh9PmOp9ZqAWGjx-26" style="edgeStyle=orthogonalEdgeStyle;rounded=0;orthogonalLoop=1;jettySize=auto;html=1;exitX=0.776;exitY=-0.008;exitDx=0;exitDy=0;entryX=0.5;entryY=1;entryDx=0;entryDy=0;exitPerimeter=0;" edge="1" parent="1" source="-GC_Feh9PmOp9ZqAWGjx-19" target="-GC_Feh9PmOp9ZqAWGjx-14">
          <mxGeometry relative="1" as="geometry" />
        </mxCell>
        <mxCell id="-GC_Feh9PmOp9ZqAWGjx-19" value="" style="rounded=0;whiteSpace=wrap;html=1;fillColor=#dae8fc;strokeColor=#6c8ebf;" vertex="1" parent="1">
          <mxGeometry x="50" y="470" width="670" height="125" as="geometry" />
        </mxCell>
        <mxCell id="-GC_Feh9PmOp9ZqAWGjx-17" value="" style="rounded=0;whiteSpace=wrap;html=1;dashed=1;fillColor=#f5f5f5;fontColor=#333333;strokeColor=#666666;" vertex="1" parent="1">
          <mxGeometry x="390" y="490" width="290" height="90" as="geometry" />
        </mxCell>
        <mxCell id="-GC_Feh9PmOp9ZqAWGjx-13" style="edgeStyle=orthogonalEdgeStyle;rounded=0;orthogonalLoop=1;jettySize=auto;html=1;exitX=0.5;exitY=1;exitDx=0;exitDy=0;entryX=0.5;entryY=0;entryDx=0;entryDy=0;" edge="1" parent="1" source="-GC_Feh9PmOp9ZqAWGjx-2" target="-GC_Feh9PmOp9ZqAWGjx-12">
          <mxGeometry relative="1" as="geometry" />
        </mxCell>
        <mxCell id="-GC_Feh9PmOp9ZqAWGjx-2" value="Nginx" style="rounded=0;whiteSpace=wrap;html=1;fillColor=#fff2cc;strokeColor=#d6b656;" vertex="1" parent="1">
          <mxGeometry x="325" y="240" width="120" height="60" as="geometry" />
        </mxCell>
        <mxCell id="-GC_Feh9PmOp9ZqAWGjx-8" value="" style="edgeStyle=orthogonalEdgeStyle;rounded=0;orthogonalLoop=1;jettySize=auto;html=1;" edge="1" parent="1" source="-GC_Feh9PmOp9ZqAWGjx-3" target="-GC_Feh9PmOp9ZqAWGjx-2">
          <mxGeometry relative="1" as="geometry" />
        </mxCell>
        <mxCell id="-GC_Feh9PmOp9ZqAWGjx-3" value="Actor" style="shape=umlActor;verticalLabelPosition=bottom;verticalAlign=top;html=1;outlineConnect=0;" vertex="1" parent="1">
          <mxGeometry x="370" y="110" width="30" height="60" as="geometry" />
        </mxCell>
        <mxCell id="-GC_Feh9PmOp9ZqAWGjx-27" style="edgeStyle=orthogonalEdgeStyle;rounded=0;orthogonalLoop=1;jettySize=auto;html=1;exitX=0.5;exitY=1;exitDx=0;exitDy=0;" edge="1" parent="1" source="-GC_Feh9PmOp9ZqAWGjx-9" target="-GC_Feh9PmOp9ZqAWGjx-24">
          <mxGeometry relative="1" as="geometry" />
        </mxCell>
        <mxCell id="-GC_Feh9PmOp9ZqAWGjx-36" style="edgeStyle=orthogonalEdgeStyle;rounded=0;orthogonalLoop=1;jettySize=auto;html=1;exitX=0.5;exitY=0;exitDx=0;exitDy=0;entryX=0.5;entryY=1;entryDx=0;entryDy=0;curved=1;" edge="1" parent="1" source="-GC_Feh9PmOp9ZqAWGjx-9" target="-GC_Feh9PmOp9ZqAWGjx-35">
          <mxGeometry relative="1" as="geometry" />
        </mxCell>
        <mxCell id="-GC_Feh9PmOp9ZqAWGjx-9" value="清算服务&lt;br&gt;（清算、对账、生成报表）" style="rounded=0;whiteSpace=wrap;html=1;" vertex="1" parent="1">
          <mxGeometry x="90" y="510" width="120" height="60" as="geometry" />
        </mxCell>
        <mxCell id="-GC_Feh9PmOp9ZqAWGjx-10" value="爬虫服务" style="rounded=0;whiteSpace=wrap;html=1;" vertex="1" parent="1">
          <mxGeometry x="250" y="510" width="120" height="60" as="geometry" />
        </mxCell>
        <mxCell id="-GC_Feh9PmOp9ZqAWGjx-23" style="edgeStyle=orthogonalEdgeStyle;rounded=0;orthogonalLoop=1;jettySize=auto;html=1;exitX=0.5;exitY=1;exitDx=0;exitDy=0;entryX=0.5;entryY=0;entryDx=0;entryDy=0;" edge="1" parent="1" source="-GC_Feh9PmOp9ZqAWGjx-12" target="-GC_Feh9PmOp9ZqAWGjx-19">
          <mxGeometry relative="1" as="geometry" />
        </mxCell>
        <mxCell id="-GC_Feh9PmOp9ZqAWGjx-25" style="edgeStyle=orthogonalEdgeStyle;rounded=0;orthogonalLoop=1;jettySize=auto;html=1;exitX=1;exitY=0.5;exitDx=0;exitDy=0;entryX=0;entryY=0.5;entryDx=0;entryDy=0;" edge="1" parent="1" source="-GC_Feh9PmOp9ZqAWGjx-12" target="-GC_Feh9PmOp9ZqAWGjx-14">
          <mxGeometry relative="1" as="geometry" />
        </mxCell>
        <mxCell id="-GC_Feh9PmOp9ZqAWGjx-12" value="SpringCloud Gateway" style="rounded=0;whiteSpace=wrap;html=1;" vertex="1" parent="1">
          <mxGeometry x="325" y="350" width="120" height="60" as="geometry" />
        </mxCell>
        <mxCell id="-GC_Feh9PmOp9ZqAWGjx-14" value="Nacos&lt;br&gt;(注册中心，配置中心)" style="rounded=0;whiteSpace=wrap;html=1;" vertex="1" parent="1">
          <mxGeometry x="510" y="350" width="120" height="60" as="geometry" />
        </mxCell>
        <mxCell id="-GC_Feh9PmOp9ZqAWGjx-15" value="定时任务服务&lt;br&gt;（Quartz）" style="rounded=0;whiteSpace=wrap;html=1;" vertex="1" parent="1">
          <mxGeometry x="400" y="510" width="120" height="60" as="geometry" />
        </mxCell>
        <mxCell id="-GC_Feh9PmOp9ZqAWGjx-16" value="用户服务" style="rounded=0;whiteSpace=wrap;html=1;" vertex="1" parent="1">
          <mxGeometry x="550" y="510" width="120" height="60" as="geometry" />
        </mxCell>
        <mxCell id="-GC_Feh9PmOp9ZqAWGjx-37" style="edgeStyle=orthogonalEdgeStyle;rounded=0;orthogonalLoop=1;jettySize=auto;html=1;exitX=0.75;exitY=0;exitDx=0;exitDy=0;entryX=0.5;entryY=1;entryDx=0;entryDy=0;curved=1;" edge="1" parent="1" source="-GC_Feh9PmOp9ZqAWGjx-18" target="-GC_Feh9PmOp9ZqAWGjx-35">
          <mxGeometry relative="1" as="geometry" />
        </mxCell>
        <mxCell id="-GC_Feh9PmOp9ZqAWGjx-18" value="公共基础服务" style="text;html=1;align=center;verticalAlign=middle;whiteSpace=wrap;rounded=0;" vertex="1" parent="1">
          <mxGeometry x="400" y="490" width="80" height="30" as="geometry" />
        </mxCell>
        <mxCell id="-GC_Feh9PmOp9ZqAWGjx-20" value="应用服务（容器环境）" style="text;html=1;align=center;verticalAlign=middle;whiteSpace=wrap;rounded=0;" vertex="1" parent="1">
          <mxGeometry x="50" y="470" width="130" height="30" as="geometry" />
        </mxCell>
        <mxCell id="-GC_Feh9PmOp9ZqAWGjx-24" value="Oracle Rac集群" style="shape=cylinder3;whiteSpace=wrap;html=1;boundedLbl=1;backgroundOutline=1;size=15;" vertex="1" parent="1">
          <mxGeometry x="120" y="645" width="60" height="80" as="geometry" />
        </mxCell>
        <mxCell id="-GC_Feh9PmOp9ZqAWGjx-29" value="MongoDB" style="shape=cylinder3;whiteSpace=wrap;html=1;boundedLbl=1;backgroundOutline=1;size=15;" vertex="1" parent="1">
          <mxGeometry x="280" y="645" width="60" height="80" as="geometry" />
        </mxCell>
        <mxCell id="-GC_Feh9PmOp9ZqAWGjx-31" style="edgeStyle=orthogonalEdgeStyle;rounded=0;orthogonalLoop=1;jettySize=auto;html=1;exitX=0.5;exitY=1;exitDx=0;exitDy=0;entryX=0.5;entryY=0;entryDx=0;entryDy=0;entryPerimeter=0;curved=1;" edge="1" parent="1" source="-GC_Feh9PmOp9ZqAWGjx-10" target="-GC_Feh9PmOp9ZqAWGjx-24">
          <mxGeometry relative="1" as="geometry" />
        </mxCell>
        <mxCell id="-GC_Feh9PmOp9ZqAWGjx-32" style="edgeStyle=orthogonalEdgeStyle;rounded=0;orthogonalLoop=1;jettySize=auto;html=1;exitX=0.5;exitY=1;exitDx=0;exitDy=0;entryX=0.5;entryY=0;entryDx=0;entryDy=0;entryPerimeter=0;curved=1;" edge="1" parent="1" source="-GC_Feh9PmOp9ZqAWGjx-9" target="-GC_Feh9PmOp9ZqAWGjx-29">
          <mxGeometry relative="1" as="geometry" />
        </mxCell>
        <mxCell id="-GC_Feh9PmOp9ZqAWGjx-34" value="&lt;h1 style=&quot;margin-top: 0px;&quot;&gt;说明&lt;/h1&gt;&lt;p&gt;1、MongoDB用来存储报表结构化的数据；&lt;br&gt;2、RabbitMQ用来触发定时任务和消息通知。用rabbitMQ触发定时任务好处是调用方不需要关系处理方是谁。&lt;/p&gt;" style="text;html=1;whiteSpace=wrap;overflow=hidden;rounded=0;" vertex="1" parent="1">
          <mxGeometry x="130" y="770" width="390" height="120" as="geometry" />
        </mxCell>
        <mxCell id="-GC_Feh9PmOp9ZqAWGjx-35" value="RabbitMQ" style="rounded=0;whiteSpace=wrap;html=1;" vertex="1" parent="1">
          <mxGeometry x="120" y="350" width="120" height="60" as="geometry" />
        </mxCell>
        <mxCell id="-GC_Feh9PmOp9ZqAWGjx-40" value="中间件" style="text;html=1;align=center;verticalAlign=middle;whiteSpace=wrap;rounded=0;" vertex="1" parent="1">
          <mxGeometry x="50" y="320" width="60" height="30" as="geometry" />
        </mxCell>
        <mxCell id="-GC_Feh9PmOp9ZqAWGjx-42" value="存储层" style="text;html=1;align=center;verticalAlign=middle;whiteSpace=wrap;rounded=0;" vertex="1" parent="1">
          <mxGeometry x="50" y="630" width="60" height="30" as="geometry" />
        </mxCell>
      </root>
    </mxGraphModel>
  </diagram>
</mxfile>
